# xmcd CD database file
#
# Track frame offsets:
#	150
#	13503
#	27568
#	41901
#	53935
#	68600
#	81058
#	93725
#	106584
#	118978
#	133861
#	148845
#	164183
#	177994
#	190432
#	204978
#	219608
#	234515
#	248122
#	261321
#	273481
#	287774
#
# Disc length: 4026 seconds
#
# Revision: 2
# Processed by: cddbd v1.5.2PL0 Copyright (c) Steve Scherf et al.
# Submitted via: CDex 1.51
#
DISCID=5a0fb816
DTITLE=Big Joe Williams - Meet Me Around The Corner  -  Disc 2
DYEAR=1900
DGENRE=Blues
TTITLE0=Meet Me Around The Corner
TTITLE1=Stepfather Blues
TTITLE2=Stack O'Dollars
TTITLE3=I Won't Be In Hard Luck No More
TTITLE4=Highway 49
TTITLE5=I'm Getting Wild About Her
TTITLE6=Please Don't Go
TTITLE7=Crawling King Snake
TTITLE8=His Spirit Lives On
TTITLE9=Little Leg Woman
TTITLE10=49 Highway Blues
TTITLE11=Baby Please Don't Go
TTITLE12=I Know You Gonna Miss Me
TTITLE13=Vitamin A
TTITLE14=Break 'Em On Down
TTITLE15=Providence Help The Poor People
TTITLE16=Wild Cow Blues
TTITLE17=Rootin' Ground Hog
TTITLE18=Brother James
TTITLE19=Peach Orchard Mama
TTITLE20=Someday Baby
TTITLE21=Somebody's Been Worryin'
EXTD=
EXTT0=
EXTT1=
EXTT2=
EXTT3=
EXTT4=
EXTT5=
EXTT6=
EXTT7=
EXTT8=
EXTT9=
EXTT10=
EXTT11=
EXTT12=
EXTT13=
EXTT14=
EXTT15=
EXTT16=
EXTT17=
EXTT18=
EXTT19=
EXTT20=
EXTT21=
PLAYORDER=
